<?xml version="1.0" encoding="utf-8"?>
<!-- Generator: Adobe Illustrator 24.2.3, SVG Export Plug-In . SVG Version: 6.00 Build 0)  -->
<svg version="1.1" id="Layer_1" xmlns="http://www.w3.org/2000/svg" xmlns:xlink="http://www.w3.org/1999/xlink" x="0px" y="0px"
	 viewBox="0 0 210 90.5" style="enable-background:new 0 0 210 90.5;" xml:space="preserve">
<style type="text/css">
	.st0{fill:#FFFFFF;}
</style>
<g>
	<path class="st0" d="M33,59.4c-0.4,0.3-0.8,0.6-1.3,0.8c-0.4,0.2-0.9,0.4-1.3,0.6c-0.4,0.1-0.8,0.3-1.2,0.3c-0.4,0.1-0.7,0.1-1,0.1
		L26.4,59l0.2-0.2c0.5,0.3,1,0.5,1.5,0.7s1.1,0.3,1.6,0.4c0.5,0,1.1,0,1.7-0.2c0.6-0.2,1.1-0.5,1.7-0.9c0.3-0.2,0.6-0.5,0.8-0.9
		c0.2-0.3,0.4-0.7,0.4-1c0.1-0.4,0.1-0.7,0-1.1c-0.1-0.4-0.2-0.7-0.5-1c-0.3-0.4-0.7-0.7-1.1-0.8c-0.5-0.1-0.9-0.2-1.4-0.2
		s-1,0.1-1.5,0.2c-0.5,0.1-1,0.3-1.4,0.4c-0.6,0.2-1.2,0.3-1.7,0.4c-0.5,0.1-1,0.1-1.5,0.1s-0.9-0.2-1.3-0.3s-0.7-0.5-1.1-0.9
		c-0.4-0.5-0.6-1-0.7-1.5s-0.1-1.1,0.1-1.6c0.1-0.5,0.4-1,0.8-1.6c0.4-0.5,0.9-1,1.4-1.5c0.7-0.6,1.4-1,2.1-1.2
		C27,46.2,27.6,46,28,46l1.5,1.8L29.4,48c-0.8-0.5-1.7-0.7-2.6-0.7s-1.8,0.3-2.8,1c-0.3,0.2-0.6,0.5-0.8,0.8c-0.2,0.3-0.4,0.7-0.5,1
		c-0.1,0.4-0.1,0.7,0,1.1c0.1,0.4,0.2,0.7,0.5,1.1c0.3,0.4,0.6,0.6,1,0.8c0.4,0.1,0.8,0.2,1.3,0.2s0.9-0.1,1.4-0.2
		c0.5-0.1,0.9-0.2,1.4-0.4c0.6-0.2,1.2-0.3,1.7-0.4s1.1-0.2,1.6-0.2c0.5,0,1,0.1,1.4,0.3s0.8,0.5,1.2,0.9c0.4,0.5,0.6,1,0.7,1.6
		c0.1,0.6,0.1,1.1-0.1,1.7c-0.1,0.6-0.4,1.1-0.7,1.6C33.9,58.6,33.5,59,33,59.4z"/>
	<path class="st0" d="M43.6,52c0.1-0.1,0.2-0.2,0.3-0.4c0-0.1,0.1-0.3,0-0.5c0-0.2-0.1-0.4-0.2-0.7c-0.1-0.3-0.3-0.6-0.5-0.9
		l-5.3-10L37,40c-0.4,0.2-0.7,0.4-1,0.7c-0.3,0.2-0.5,0.5-0.6,0.7c-0.2,0.3-0.3,0.5-0.3,0.8C35,42.5,35,42.8,35,43.3l-0.2,0.1
		l-0.9-2l9.3-4.9l1.2,1.9l-0.2,0.1c-0.3-0.2-0.6-0.4-0.9-0.6c-0.3-0.1-0.6-0.2-0.9-0.2c-0.3,0-0.6,0-0.9,0.1
		c-0.3,0.1-0.7,0.3-1.1,0.5l-0.8,0.4l5.3,10c0.2,0.4,0.4,0.7,0.5,0.9c0.2,0.2,0.3,0.4,0.4,0.5c0.1,0.1,0.3,0.2,0.4,0.2
		c0.1,0,0.3,0,0.4,0l0.1,0.2l-2.9,1.6L43.6,52z"/>
	<path class="st0" d="M54.4,46.7c0.1-0.1,0.2-0.2,0.3-0.3s0.1-0.3,0.1-0.5s0-0.4-0.1-0.7s-0.2-0.6-0.3-1l-3.1-8.5
		c-0.1-0.4-0.3-0.7-0.4-1c-0.1-0.3-0.2-0.4-0.4-0.6c-0.1-0.1-0.2-0.2-0.4-0.3c-0.1-0.1-0.3-0.1-0.4-0.1l-0.1-0.2l8.9-3.2l1.1,2.4
		l-0.2,0.1c-0.6-0.7-1.3-1.1-2-1.3c-0.7-0.1-1.6,0-2.5,0.4l-2.8,1l2.1,5.8l2.4-0.9c0.5-0.2,1-0.4,1.3-0.6c0.3-0.2,0.6-0.4,0.8-0.6
		c0.2-0.2,0.3-0.4,0.4-0.6c0.1-0.2,0.1-0.4,0-0.7l0.2-0.1l1,2.9l-0.2,0.1c-0.1-0.2-0.3-0.4-0.5-0.5s-0.4-0.2-0.6-0.2
		c-0.3,0-0.6,0-1,0.1s-0.8,0.2-1.4,0.4l-2.4,0.9l2.1,5.9c0.2,0.6,0.6,0.8,1.2,0.6l2.5-0.9c0.5-0.2,0.9-0.4,1.2-0.6
		c0.4-0.2,0.6-0.5,0.9-0.7s0.4-0.6,0.6-1c0.1-0.4,0.2-0.8,0.2-1.3h0.2l0.8,2.6l-9.4,3.4L54.4,46.7z"/>
	<path class="st0" d="M67.8,42c0.1-0.1,0.2-0.2,0.4-0.3c0.1-0.1,0.2-0.3,0.3-0.4c0.1-0.2,0.2-0.4,0.3-0.7c0.1-0.3,0.2-0.6,0.2-1
		L70.8,29c0-0.2,0-0.4,0-0.5s-0.1-0.3-0.2-0.4l-0.3-0.4l1.3-1l7.5,10.7c0.2,0.3,0.5,0.6,0.6,0.8c0.2,0.2,0.4,0.4,0.5,0.5
		c0.2,0.1,0.3,0.2,0.4,0.3s0.3,0.1,0.4,0.1l0.1,0.3l-3,0.6L78,39.8c0.1-0.1,0.2-0.2,0.3-0.3c0-0.1,0-0.2,0-0.4
		c-0.1-0.1-0.2-0.3-0.3-0.6c-0.2-0.2-0.3-0.5-0.6-0.8L75.5,35l-5.6,1.2l-0.5,3.2c-0.2,1.4,0,2,0.7,2l0.1,0.3L68,42.2L67.8,42z
		 M75.3,34.8l-4.2-5.9L70,36L75.3,34.8z"/>
	<path class="st0" d="M85.6,38.5c0.1-0.1,0.3-0.1,0.4-0.2c0.1-0.1,0.2-0.2,0.2-0.4s0.1-0.4,0.1-0.7s0-0.6-0.1-1l-0.9-9
		c0-0.4-0.1-0.8-0.1-1c-0.1-0.3-0.1-0.5-0.2-0.7s-0.2-0.3-0.3-0.4c-0.1-0.1-0.3-0.1-0.4-0.2v-0.3l3.3-0.3v0.3
		c-0.2,0.1-0.3,0.1-0.4,0.2C87.1,24.9,87,25,87,25.2s-0.1,0.4-0.1,0.7c0,0.3,0,0.6,0.1,1l0.5,5.1l4.8-5.9c0.6-0.7,0.9-1.3,1-1.6
		c0.1-0.3-0.1-0.5-0.5-0.6v-0.2l2.8-0.3v0.3c-0.2,0.1-0.3,0.1-0.5,0.2s-0.4,0.2-0.6,0.3s-0.4,0.3-0.7,0.5c-0.2,0.2-0.5,0.5-0.7,0.8
		l-3.9,4.8l0.5-0.1c0.8-0.1,1.4-0.2,1.9-0.1s0.9,0.3,1.3,0.6c0.4,0.3,0.7,0.7,1,1.3c0.3,0.6,0.7,1.2,1.1,2.1
		c0.3,0.6,0.6,1.1,0.8,1.5c0.2,0.4,0.4,0.7,0.6,1c0.2,0.2,0.4,0.4,0.5,0.5c0.2,0.1,0.3,0.1,0.5,0.1c0.1,0,0.1,0,0.2,0
		c0,0,0.1,0,0.2,0v0.3c-0.2,0.1-0.4,0.1-0.6,0.2c-0.2,0-0.4,0.1-0.6,0.1c-0.4,0-0.7,0-0.9-0.1c-0.3-0.1-0.5-0.3-0.7-0.5
		s-0.5-0.6-0.7-0.9c-0.2-0.4-0.5-0.9-0.8-1.4c-0.4-0.8-0.8-1.5-1.1-2c-0.3-0.6-0.6-1-0.9-1.3s-0.6-0.6-0.9-0.7s-0.8-0.2-1.3-0.1
		h-0.4l-1.3,1.7l0.3,3.5c0,0.4,0.1,0.8,0.1,1c0.1,0.3,0.1,0.5,0.2,0.7s0.2,0.3,0.3,0.4c0.1,0.1,0.2,0.1,0.4,0.2v0.3l-3.3,0.3
		L85.6,38.5z"/>
	<path class="st0" d="M102.3,37.2c0.1,0,0.3-0.1,0.4-0.2s0.2-0.2,0.3-0.4c0.1-0.2,0.1-0.4,0.1-0.7s0.1-0.6,0.1-1l0.2-9.1
		c0-0.4,0-0.8,0-1c0-0.3-0.1-0.5-0.1-0.7c-0.1-0.2-0.1-0.3-0.2-0.4s-0.2-0.2-0.4-0.2v-0.3l3.3,0.1v0.3c-0.2,0-0.3,0.1-0.4,0.2
		s-0.2,0.2-0.3,0.4c-0.1,0.2-0.1,0.4-0.1,0.7c0,0.3-0.1,0.6-0.1,1l-0.1,3.9l7.7,0.2l0.1-3.9c0-0.4,0-0.8,0-1c0-0.3-0.1-0.5-0.1-0.7
		c-0.1-0.2-0.1-0.3-0.2-0.4s-0.2-0.2-0.4-0.2v-0.3l3.3,0.1v0.3c-0.2,0-0.3,0.1-0.4,0.2s-0.2,0.2-0.3,0.4c-0.1,0.2-0.1,0.4-0.1,0.7
		c0,0.3-0.1,0.6-0.1,1l-0.2,9.1c0,0.4,0,0.8,0,1c0,0.3,0.1,0.5,0.1,0.7c0.1,0.2,0.1,0.3,0.2,0.4c0.1,0.1,0.2,0.2,0.4,0.2v0.3
		l-3.3-0.1v-0.3c0.1,0,0.3-0.1,0.4-0.2c0.1-0.1,0.2-0.2,0.3-0.4c0.1-0.2,0.1-0.4,0.1-0.7s0.1-0.6,0.1-1l0.1-4.8l-7.7-0.2l-0.1,4.8
		c0,0.4,0,0.8,0,1c0,0.3,0.1,0.5,0.1,0.7c0.1,0.2,0.1,0.3,0.2,0.4c0.1,0.1,0.2,0.2,0.4,0.2v0.3l-3.3-0.1V37.2z"/>
	<path class="st0" d="M127.8,39.5c-0.9-0.1-1.7-0.4-2.5-0.8c-0.8-0.4-1.5-1-2.1-1.7s-1-1.5-1.3-2.5s-0.3-2.1-0.1-3.3
		c0.2-1,0.5-2,1-2.8s1.1-1.5,1.8-2c0.7-0.5,1.6-0.9,2.5-1.1c0.9-0.2,1.9-0.3,3-0.1c0.8,0.1,1.7,0.4,2.5,0.8s1.5,1,2.1,1.7
		s1,1.5,1.3,2.5s0.3,2.1,0.1,3.3s-0.6,2.3-1.1,3.1c-0.6,0.8-1.2,1.5-2,2s-1.6,0.8-2.5,0.9C129.5,39.6,128.6,39.6,127.8,39.5z
		 M123.5,30.2c-0.1,1-0.1,2,0.1,3s0.5,1.9,0.9,2.7c0.5,0.8,1,1.5,1.7,2.1s1.5,0.9,2.4,1.1c0.8,0.1,1.5,0.1,2.2-0.1
		c0.6-0.2,1.2-0.5,1.7-0.9s0.8-0.9,1.1-1.6c0.3-0.6,0.5-1.3,0.6-2.1c0.1-1.1,0.1-2.1-0.1-3.1s-0.5-2-0.9-2.8s-1-1.6-1.7-2.1
		c-0.7-0.6-1.5-0.9-2.4-1.1c-0.8-0.1-1.5-0.1-2.1,0.1s-1.2,0.5-1.7,0.9s-0.9,1-1.2,1.6C123.8,28.6,123.6,29.4,123.5,30.2z"/>
	<path class="st0" d="M146.4,43.8c-0.7-0.2-1.4-0.5-2-0.9s-1.1-0.8-1.5-1.4c-0.4-0.6-0.6-1.2-0.7-2c-0.1-0.8,0-1.6,0.3-2.6l1.9-6.1
		c0.1-0.4,0.2-0.7,0.3-1s0.1-0.5,0.1-0.7s0-0.3-0.1-0.5c-0.1-0.1-0.2-0.2-0.3-0.3l0.1-0.3l3.1,1l-0.1,0.3c-0.2,0-0.3,0-0.4,0.1
		c-0.1,0.1-0.3,0.2-0.4,0.3c-0.1,0.1-0.2,0.3-0.3,0.6c-0.1,0.3-0.2,0.6-0.3,1l-1.8,6c-0.3,0.9-0.4,1.7-0.4,2.4s0.2,1.3,0.5,1.8
		s0.7,0.9,1.2,1.3c0.5,0.3,1.1,0.6,1.7,0.8c0.4,0.1,0.9,0.2,1.4,0.2s1-0.2,1.5-0.4c0.5-0.3,1-0.7,1.4-1.2c0.4-0.6,0.8-1.3,1.1-2.3
		l1.6-5.2c0.2-0.6,0.3-1,0.3-1.4c0.1-0.4,0.1-0.7,0-0.9c0-0.3-0.1-0.5-0.3-0.6s-0.3-0.3-0.5-0.4l0.1-0.3l2.4,0.7l-0.1,0.3
		c-0.2,0-0.3,0-0.4,0.1c-0.1,0.1-0.3,0.2-0.4,0.3c-0.1,0.1-0.2,0.3-0.3,0.6s-0.2,0.6-0.3,1L153,40c-0.3,1-0.7,1.8-1.1,2.4
		c-0.5,0.6-1,1.1-1.5,1.4c-0.6,0.3-1.2,0.4-1.8,0.5C147.7,44.1,147,44,146.4,43.8z"/>
	<path class="st0" d="M161.1,49.5c-0.5-0.2-0.9-0.5-1.3-0.8c-0.4-0.3-0.8-0.6-1.1-0.9c-0.3-0.3-0.6-0.6-0.8-0.9
		c-0.2-0.3-0.4-0.6-0.6-0.8l1.1-2.6l0.2,0.1c0,0.6,0,1.1,0,1.7c0.1,0.6,0.2,1.1,0.4,1.6s0.5,1,1,1.4c0.4,0.4,0.9,0.8,1.6,1.1
		c0.4,0.2,0.7,0.3,1.1,0.3c0.4,0,0.8,0,1.1-0.1s0.7-0.3,1-0.5s0.5-0.5,0.7-0.9c0.2-0.5,0.3-0.9,0.2-1.4s-0.3-0.9-0.5-1.3
		c-0.3-0.4-0.6-0.9-0.9-1.3c-0.4-0.4-0.7-0.8-1-1.1c-0.4-0.5-0.8-0.9-1.2-1.3s-0.6-0.8-0.8-1.3c-0.2-0.4-0.3-0.8-0.3-1.3
		c0-0.4,0.1-0.9,0.3-1.4c0.3-0.5,0.6-1,1-1.3s0.9-0.6,1.4-0.7c0.5-0.1,1.1-0.1,1.7,0c0.6,0.1,1.3,0.3,2,0.6c0.8,0.4,1.5,0.8,2,1.3
		s0.9,0.9,1.2,1.2l-0.9,2.2h-0.2c0-1-0.2-1.9-0.6-2.7c-0.4-0.8-1.1-1.5-2.2-2c-0.4-0.2-0.7-0.3-1.1-0.3c-0.4-0.1-0.8,0-1.1,0.1
		s-0.7,0.3-1,0.5s-0.5,0.5-0.7,0.9s-0.3,0.9-0.2,1.3c0.1,0.4,0.2,0.8,0.4,1.2s0.5,0.8,0.8,1.1c0.3,0.4,0.7,0.7,1,1.1
		c0.4,0.4,0.8,0.9,1.2,1.3c0.4,0.4,0.7,0.9,0.9,1.3c0.2,0.5,0.4,0.9,0.4,1.4s-0.1,1-0.3,1.5c-0.3,0.6-0.6,1-1.1,1.4
		c-0.5,0.3-1,0.6-1.5,0.7c-0.6,0.1-1.1,0.2-1.7,0.1C162.2,49.9,161.6,49.7,161.1,49.5z"/>
	<path class="st0" d="M170.2,53.7c0.1,0.1,0.3,0.1,0.4,0c0.1,0,0.3-0.1,0.4-0.2c0.1-0.1,0.3-0.3,0.5-0.5s0.4-0.5,0.6-0.8l5.1-7.5
		c0.2-0.3,0.4-0.6,0.6-0.9c0.1-0.2,0.2-0.5,0.3-0.6c0-0.2,0-0.3,0-0.5c0-0.1-0.1-0.3-0.2-0.4l0.1-0.2l7.8,5.3l-1.3,2.3l-0.2-0.1
		c0.2-0.9,0.2-1.7-0.2-2.4c-0.3-0.6-0.9-1.3-1.8-1.9l-2.5-1.7l-3.5,5.1l2.2,1.5c0.5,0.3,0.9,0.6,1.2,0.7c0.3,0.2,0.6,0.3,0.9,0.3
		c0.3,0,0.5,0,0.7-0.1s0.4-0.2,0.6-0.3l0.2,0.1l-1.7,2.5l-0.2-0.1c0.1-0.2,0.1-0.4,0.1-0.6c0-0.2-0.1-0.4-0.2-0.7
		c-0.1-0.2-0.3-0.5-0.6-0.7c-0.3-0.3-0.7-0.6-1.1-0.9l-2.2-1.5l-3.5,5.2c-0.3,0.5-0.3,0.9,0.2,1.3l2.2,1.5c0.4,0.3,0.8,0.5,1.2,0.7
		s0.7,0.3,1.1,0.3c0.4,0,0.8,0,1.1-0.1c0.4-0.1,0.8-0.3,1.2-0.6l0.2,0.2l-1.7,2.1l-8.3-5.6L170.2,53.7z"/>
</g>
<g>
	<path class="st0" d="M66,69c-0.2,0-0.4,0-0.5-0.1s-0.3-0.2-0.4-0.3c-0.1-0.1-0.2-0.3-0.3-0.5c-0.1-0.2-0.2-0.5-0.3-0.8
		c-0.2-0.4-0.3-0.7-0.4-1s-0.2-0.5-0.4-0.7c-0.1-0.2-0.3-0.3-0.5-0.4s-0.5-0.1-0.8-0.1h-0.7v2.6c0,0.2,0,0.4,0,0.6
		c0,0.1,0,0.3,0.1,0.4c0,0.1,0.1,0.2,0.1,0.2C62,69,62,69,62.1,69v0.1h-1.8V69c0.1,0,0.2-0.1,0.2-0.1c0.1-0.1,0.1-0.1,0.1-0.2
		s0.1-0.2,0.1-0.4c0-0.1,0-0.3,0-0.6v-4.9c0-0.2,0-0.4,0-0.6c0-0.1,0-0.3-0.1-0.4c0-0.1-0.1-0.2-0.1-0.2c-0.1,0-0.1-0.1-0.2-0.1
		v-0.1h2.2c0.6,0,1,0,1.4,0.1c0.4,0.1,0.7,0.2,0.9,0.4s0.4,0.3,0.5,0.5s0.1,0.4,0.1,0.7c0,0.5-0.2,1-0.5,1.3
		c-0.4,0.4-0.9,0.6-1.6,0.7c0.3,0,0.6,0.1,0.8,0.2c0.2,0.1,0.4,0.2,0.5,0.4c0.1,0.2,0.3,0.4,0.4,0.6c0.1,0.3,0.2,0.6,0.4,0.9
		c0.1,0.3,0.2,0.6,0.3,0.8c0.1,0.2,0.2,0.4,0.3,0.5c0.1,0.1,0.2,0.2,0.2,0.3c0.1,0.1,0.2,0.1,0.3,0.1c0.1,0,0.1,0,0.2,0V69
		c-0.1,0-0.2,0-0.3,0.1C66.3,68.9,66.2,69,66,69z M62.7,64.8c0.6,0,1.1-0.1,1.4-0.4c0.3-0.3,0.4-0.7,0.4-1.1c0-0.2,0-0.5-0.1-0.7
		S64.2,62.2,64,62c-0.2-0.2-0.4-0.3-0.7-0.4c-0.3-0.1-0.6-0.1-1-0.1c-0.1,0-0.2,0-0.3,0s-0.2,0-0.3,0v3.4L62.7,64.8L62.7,64.8z"/>
	<path class="st0" d="M69.4,68.7c0.1,0,0.1-0.1,0.2-0.1c0.1-0.1,0.1-0.1,0.1-0.2s0.1-0.2,0.1-0.4c0-0.1,0-0.3,0-0.6v-4.9
		c0-0.2,0-0.4,0-0.6c0-0.1,0-0.3-0.1-0.4c0-0.1-0.1-0.2-0.1-0.2c-0.1,0-0.1-0.1-0.2-0.1v-0.1h5.1l0.1,1.4h-0.1
		c-0.2-0.5-0.5-0.8-0.8-1s-0.8-0.3-1.3-0.3h-1.6v3.3h1.4c0.3,0,0.6,0,0.8,0c0.2,0,0.4-0.1,0.5-0.1s0.2-0.1,0.3-0.2
		c0.1-0.1,0.1-0.2,0.1-0.3H74v1.6h-0.1c0-0.1-0.1-0.2-0.1-0.3c-0.1-0.1-0.2-0.2-0.3-0.2c-0.1-0.1-0.3-0.1-0.5-0.1s-0.5,0-0.8,0h-1.4
		v3.4c0,0.3,0.2,0.5,0.5,0.5h1.4c0.3,0,0.5,0,0.7-0.1c0.2,0,0.4-0.1,0.6-0.2s0.3-0.2,0.5-0.4c0.1-0.2,0.2-0.4,0.3-0.6h0.1L74.8,69
		h-5.4C69.4,69,69.4,68.7,69.4,68.7z"/>
	<path class="st0" d="M80.5,69c-0.3,0-0.6,0-0.8-0.1c-0.3,0-0.5-0.1-0.7-0.2s-0.4-0.2-0.6-0.2c-0.2-0.1-0.3-0.2-0.5-0.3l-0.1-1.5
		h0.1c0.1,0.3,0.2,0.6,0.4,0.8c0.2,0.3,0.4,0.5,0.6,0.7s0.5,0.3,0.8,0.5c0.3,0.1,0.6,0.2,1,0.2c0.2,0,0.4,0,0.6-0.1s0.4-0.2,0.5-0.3
		c0.1-0.1,0.3-0.3,0.4-0.5s0.1-0.4,0.1-0.6c0-0.3-0.1-0.5-0.2-0.7s-0.3-0.4-0.6-0.5c-0.2-0.2-0.5-0.3-0.7-0.4
		c-0.3-0.1-0.5-0.2-0.7-0.3c-0.3-0.1-0.6-0.3-0.9-0.4s-0.5-0.3-0.7-0.4c-0.2-0.2-0.3-0.3-0.4-0.6C78,63.9,78,63.6,78,63.4
		c0-0.3,0.1-0.6,0.2-0.9c0.1-0.3,0.3-0.5,0.5-0.7s0.5-0.3,0.8-0.4c0.3-0.1,0.7-0.1,1.1-0.1c0.5,0,0.9,0.1,1.3,0.2
		c0.4,0.1,0.6,0.2,0.8,0.3v1.3h-0.1c-0.2-0.5-0.5-0.9-0.9-1.2s-0.9-0.5-1.5-0.5c-0.2,0-0.4,0-0.6,0.1s-0.4,0.2-0.5,0.3
		s-0.3,0.3-0.4,0.5s-0.1,0.4-0.1,0.6c0,0.3,0.1,0.5,0.2,0.7s0.3,0.3,0.5,0.5c0.2,0.2,0.4,0.3,0.7,0.4c0.2,0.1,0.5,0.2,0.7,0.3
		c0.3,0.1,0.6,0.2,0.9,0.4c0.3,0.1,0.5,0.3,0.7,0.4c0.2,0.2,0.4,0.4,0.5,0.6S83,66.7,83,67s-0.1,0.6-0.2,0.9s-0.3,0.5-0.6,0.7
		c-0.2,0.2-0.5,0.3-0.8,0.4C81.2,68.9,80.8,69,80.5,69z"/>
	<path class="st0" d="M86.2,68.7c0.1,0,0.1-0.1,0.2-0.1c0.1-0.1,0.1-0.1,0.1-0.2s0.1-0.2,0.1-0.4c0-0.1,0-0.3,0-0.6v-4.9
		c0-0.2,0-0.4,0-0.6c0-0.1,0-0.3-0.1-0.4c0-0.1-0.1-0.2-0.1-0.2c-0.1,0-0.1-0.1-0.2-0.1v-0.1H88v0.1c-0.1,0-0.2,0.1-0.2,0.1
		c-0.1,0.1-0.1,0.1-0.1,0.2c0,0.1-0.1,0.2-0.1,0.4c0,0.1,0,0.3,0,0.6v4.9c0,0.2,0,0.4,0,0.6c0,0.1,0,0.3,0.1,0.4
		c0,0.1,0.1,0.2,0.1,0.2c0.1,0.1,0.1,0.1,0.2,0.1v0.1L86.2,68.7L86.2,68.7z"/>
	<path class="st0" d="M91.2,68.7c0.1,0,0.1-0.1,0.2-0.1c0.1-0.1,0.1-0.1,0.1-0.2s0.1-0.2,0.1-0.4c0-0.1,0-0.3,0-0.6v-4.9
		c0-0.2,0-0.4,0-0.6c0-0.1,0-0.3-0.1-0.4c0-0.1-0.1-0.2-0.1-0.2c-0.1,0-0.1-0.1-0.2-0.1v-0.1h2.6c0.8,0,1.4,0.1,1.9,0.3
		s1,0.5,1.3,0.9c0.3,0.3,0.6,0.7,0.7,1.2c0.2,0.4,0.2,0.9,0.2,1.3c0,0.6-0.1,1.1-0.3,1.6c-0.2,0.5-0.4,0.9-0.8,1.3
		c-0.3,0.4-0.8,0.6-1.2,0.8s-1,0.3-1.6,0.3h-2.9v-0.1H91.2z M92.6,67.9c0,0.3,0,0.5,0.1,0.6s0.3,0.2,0.6,0.2h0.8
		c1,0,1.7-0.3,2.2-0.8c0.5-0.6,0.8-1.4,0.8-2.5c0-0.5-0.1-1.1-0.2-1.5c-0.2-0.5-0.4-0.9-0.7-1.3c-0.3-0.4-0.7-0.6-1.2-0.8
		s-1-0.3-1.6-0.3h-0.7v6.4H92.6z"/>
	<path class="st0" d="M101.3,68.7c0.1,0,0.1-0.1,0.2-0.1c0.1-0.1,0.1-0.1,0.1-0.2s0.1-0.2,0.1-0.4c0-0.1,0-0.3,0-0.6v-4.9
		c0-0.2,0-0.4,0-0.6c0-0.1,0-0.3-0.1-0.4c0-0.1-0.1-0.2-0.1-0.2c-0.1,0-0.1-0.1-0.2-0.1v-0.1h5.1l0.1,1.4h-0.1
		c-0.2-0.5-0.5-0.8-0.8-1s-0.8-0.3-1.3-0.3h-1.6v3.3h1.4c0.3,0,0.6,0,0.8,0c0.2,0,0.4-0.1,0.5-0.1s0.2-0.1,0.3-0.2
		c0.1-0.1,0.1-0.2,0.1-0.3h0.1v1.6h-0.1c0-0.1-0.1-0.2-0.1-0.3c-0.1-0.1-0.2-0.2-0.3-0.2c-0.1-0.1-0.3-0.1-0.5-0.1s-0.5,0-0.8,0
		h-1.4v3.4c0,0.3,0.2,0.5,0.5,0.5h1.4c0.3,0,0.5,0,0.7-0.1c0.2,0,0.4-0.1,0.6-0.2s0.3-0.2,0.5-0.4c0.1-0.2,0.2-0.4,0.3-0.6h0.1
		l-0.1,1.5h-5.4C101.3,69,101.3,68.7,101.3,68.7z"/>
	<path class="st0" d="M110.6,62.3v4.8c0,0.3,0,0.6,0,0.8s0.1,0.4,0.1,0.5s0.1,0.2,0.2,0.3c0.1,0.1,0.2,0.1,0.3,0.1v0.1H110v-0.1
		c0.1,0,0.1-0.1,0.2-0.1c0.1-0.1,0.1-0.1,0.1-0.2s0.1-0.2,0.1-0.4c0-0.1,0-0.3,0-0.6v-4.9c0-0.2,0-0.4,0-0.6c0-0.1,0-0.3-0.1-0.4
		c0-0.1-0.1-0.2-0.2-0.2s-0.2-0.1-0.3-0.1v-0.1h1.1l4.8,6.2V63c0-0.3,0-0.6,0-0.8s-0.1-0.4-0.1-0.5c-0.1-0.1-0.1-0.2-0.2-0.3
		s-0.2-0.1-0.3-0.1v-0.1h1.4v0.1c-0.1,0-0.2,0.1-0.2,0.1c-0.1,0.1-0.1,0.1-0.1,0.2c0,0.1-0.1,0.2-0.1,0.4c0,0.1,0,0.3,0,0.6V69H116
		L110.6,62.3z"/>
	<path class="st0" d="M123.6,69c-0.6,0-1.2-0.1-1.7-0.3s-0.9-0.4-1.3-0.7c-0.4-0.3-0.6-0.7-0.8-1.2c-0.2-0.5-0.3-1-0.3-1.6
		s0.1-1.1,0.3-1.6c0.2-0.5,0.5-0.9,0.9-1.3c0.4-0.4,0.8-0.6,1.4-0.8c0.5-0.2,1.1-0.3,1.8-0.3c0.2,0,0.5,0,0.7,0s0.5,0.1,0.7,0.1
		c0.2,0.1,0.4,0.1,0.6,0.2s0.3,0.1,0.4,0.2V63h-0.1c-0.1-0.2-0.3-0.5-0.4-0.7c-0.2-0.2-0.4-0.4-0.6-0.5s-0.5-0.3-0.8-0.3
		c-0.3-0.1-0.6-0.1-0.9-0.1c-0.4,0-0.8,0.1-1.2,0.2c-0.4,0.1-0.7,0.4-1,0.6c-0.3,0.3-0.5,0.6-0.6,1.1s-0.2,0.9-0.2,1.5
		c0,0.5,0.1,1,0.2,1.5s0.4,0.9,0.7,1.3s0.7,0.7,1.1,0.9c0.4,0.2,0.9,0.3,1.5,0.3s1.1-0.2,1.5-0.5s0.8-0.8,1-1.3h0.1l-0.2,1.4
		c-0.1,0.1-0.3,0.1-0.5,0.2s-0.4,0.1-0.6,0.2s-0.5,0.1-0.8,0.1S123.9,69,123.6,69z"/>
	<path class="st0" d="M129.8,68.7c0.1,0,0.1-0.1,0.2-0.1c0.1-0.1,0.1-0.1,0.1-0.2s0.1-0.2,0.1-0.4c0-0.1,0-0.3,0-0.6v-4.9
		c0-0.2,0-0.4,0-0.6c0-0.1,0-0.3-0.1-0.4c0-0.1-0.1-0.2-0.1-0.2c-0.1,0-0.1-0.1-0.2-0.1v-0.1h5.1l0.1,1.4h-0.1
		c-0.2-0.5-0.5-0.8-0.8-1s-0.8-0.3-1.3-0.3h-1.6v3.3h1.4c0.3,0,0.6,0,0.8,0s0.4-0.1,0.5-0.1s0.2-0.1,0.3-0.2s0.1-0.2,0.1-0.3h0.1
		v1.6h-0.1c0-0.1-0.1-0.2-0.1-0.3S134,65,133.9,65c-0.1-0.1-0.3-0.1-0.5-0.1s-0.5,0-0.8,0h-1.4v3.4c0,0.3,0.2,0.5,0.5,0.5h1.4
		c0.3,0,0.5,0,0.7-0.1c0.2,0,0.4-0.1,0.6-0.2c0.2-0.1,0.3-0.2,0.5-0.4c0.1-0.2,0.2-0.4,0.3-0.6h0.1l-0.1,1.5h-5.4V68.7z"/>
	<path class="st0" d="M140.9,69c-0.3,0-0.6,0-0.8-0.1c-0.3,0-0.5-0.1-0.7-0.2s-0.4-0.2-0.6-0.2c-0.2-0.1-0.3-0.2-0.5-0.3l-0.1-1.5
		h0.1c0.1,0.3,0.2,0.6,0.4,0.8s0.4,0.5,0.6,0.7c0.2,0.2,0.5,0.3,0.8,0.5c0.3,0.1,0.6,0.2,1,0.2c0.2,0,0.4,0,0.6-0.1
		c0.2-0.1,0.4-0.2,0.5-0.3c0.1-0.1,0.3-0.3,0.4-0.5c0.1-0.2,0.1-0.4,0.1-0.6c0-0.3-0.1-0.5-0.2-0.7s-0.3-0.4-0.6-0.5
		c-0.2-0.2-0.5-0.3-0.7-0.4c-0.3-0.1-0.5-0.2-0.7-0.3c-0.3-0.1-0.6-0.3-0.9-0.4c-0.3-0.1-0.5-0.3-0.7-0.4c-0.2-0.2-0.3-0.3-0.4-0.6
		s-0.1-0.5-0.1-0.7c0-0.3,0.1-0.6,0.2-0.9c0.1-0.3,0.3-0.5,0.5-0.7s0.5-0.3,0.8-0.4c0.3-0.1,0.7-0.1,1.1-0.1c0.5,0,0.9,0.1,1.3,0.2
		s0.6,0.2,0.8,0.3v1.3H143c-0.2-0.5-0.5-0.9-0.9-1.2s-0.9-0.5-1.5-0.5c-0.2,0-0.4,0-0.6,0.1c-0.2,0.1-0.4,0.2-0.5,0.3
		s-0.3,0.3-0.4,0.5c-0.1,0.2-0.1,0.4-0.1,0.6c0,0.3,0.1,0.5,0.2,0.7c0.1,0.2,0.3,0.3,0.5,0.5c0.2,0.1,0.4,0.3,0.7,0.4
		c0.2,0.1,0.5,0.2,0.7,0.3c0.3,0.1,0.6,0.2,0.9,0.4c0.3,0.1,0.5,0.3,0.7,0.4c0.2,0.2,0.4,0.4,0.5,0.6s0.2,0.5,0.2,0.8
		s-0.1,0.6-0.2,0.9c-0.1,0.3-0.3,0.5-0.6,0.7c-0.2,0.2-0.5,0.3-0.8,0.4C141.6,68.9,141.3,69,140.9,69z"/>
</g>
</svg>
